<?xml version="1.0" standalone="no"?>
<!DOCTYPE svg PUBLIC "-//W3C//DTD SVG 20010904//EN"
 "http://www.w3.org/TR/2001/REC-SVG-20010904/DTD/svg10.dtd">
<svg version="1.0" xmlns="http://www.w3.org/2000/svg"
 width="800.000000pt" height="600.000000pt" viewBox="0 0 800.000000 600.000000"
 preserveAspectRatio="xMidYMid meet">

<g transform="translate(0.000000,600.000000) scale(0.100000,-0.100000)"
fill="#000000" stroke="none">
<path d="M3688 4904 c-84 -81 -197 -191 -251 -243 l-98 -96 -40 45 c-23 25
-75 84 -117 133 -42 48 -79 87 -83 87 -9 0 -4 5 -166 -153 -120 -117 -135
-128 -160 -123 -26 6 -42 -8 -193 -159 -91 -91 -168 -165 -171 -165 -4 0 -19
25 -34 55 -14 30 -28 55 -30 55 -2 0 -15 -24 -28 -52 -14 -30 -58 -89 -102
-135 -46 -50 -70 -83 -61 -83 9 0 16 -3 16 -7 0 -3 -32 -41 -71 -85 -68 -75
-70 -78 -43 -78 l28 0 -40 -42 c-21 -24 -53 -58 -69 -76 l-29 -32 32 6 c18 4
32 3 32 0 0 -4 -14 -28 -31 -53 l-31 -45 53 6 c30 4 72 9 94 12 l40 5 -95 -91
c-92 -87 -94 -90 -60 -84 l35 6 -35 -34 c-19 -18 -58 -53 -85 -77 l-50 -44 43
7 c39 6 42 5 33 -11 -5 -10 -19 -27 -31 -38 -33 -30 -44 -54 -22 -49 26 6 207
22 210 19 2 -2 -45 -38 -105 -81 -139 -100 -137 -97 -83 -90 l45 6 -25 -20
c-14 -11 -61 -44 -105 -75 l-79 -55 42 0 c23 0 42 -3 42 -7 0 -4 -18 -26 -41
-49 l-41 -42 44 5 44 5 17 -53 c9 -30 29 -75 44 -101 31 -53 1631 -1662 1698
-1708 142 -96 343 -102 492 -14 47 28 254 230 885 863 526 526 830 838 838
859 12 31 15 32 66 32 l54 0 -38 36 -37 36 38 -6 c20 -2 37 -3 37 -1 0 2 -32
25 -72 52 -71 47 -71 48 -42 54 16 4 25 7 19 8 -5 1 -44 26 -85 57 l-75 55 85
-7 85 -6 -27 29 c-35 36 -35 47 -3 39 38 -10 29 5 -33 54 -50 40 -54 45 -34
50 20 4 16 10 -37 55 -33 28 -60 53 -60 58 -1 9 22 8 77 -2 23 -5 42 -6 42 -4
0 3 -9 17 -20 33 -21 29 -18 42 7 33 22 -9 3 24 -36 61 -35 33 -40 49 -13 39
9 -4 -9 23 -41 60 -44 50 -54 67 -41 67 13 0 3 16 -38 58 -31 31 -65 75 -76
97 l-20 39 -20 -39 c-11 -22 -44 -66 -72 -97 -28 -32 -46 -58 -39 -58 9 0 8
-5 -4 -17 -9 -9 -18 -15 -21 -12 -2 2 -9 78 -15 169 -12 174 -30 275 -60 325
-9 16 -20 39 -24 50 -6 16 -3 15 13 -5 28 -36 25 -17 -19 106 -96 265 -110
288 -232 387 l-54 44 -55 -11 c-30 -6 -66 -19 -80 -29 -34 -24 -47 -21 -53 11
-3 15 -23 46 -44 68 -31 34 -47 43 -87 48 -94 14 -176 -56 -176 -151 0 -21 11
-80 25 -131 14 -51 25 -96 25 -99 0 -4 -19 18 -42 49 -24 31 -99 128 -167 217
-108 143 -126 162 -149 159 -22 -3 -43 17 -142 126 -64 71 -121 131 -127 133
-6 2 -80 -62 -165 -143z m257 -271 c46 -42 81 -81 78 -87 -3 -6 -3 -8 2 -4 8
8 39 -15 120 -91 28 -25 93 -85 146 -133 53 -47 94 -90 90 -95 -3 -5 -33 -30
-66 -55 -60 -45 -60 -46 -92 -149 -21 -69 -36 -144 -43 -223 -7 -66 -20 -143
-30 -170 -25 -69 -32 -164 -31 -399 1 -191 2 -200 25 -230 12 -18 23 -43 23
-57 0 -25 -74 -304 -128 -480 -16 -52 -44 -153 -63 -225 -19 -71 -51 -186 -71
-255 -21 -69 -46 -156 -55 -193 -10 -38 -20 -70 -22 -72 -4 -4 -218 113 -218
119 0 1 26 1 58 -2 36 -3 53 -1 47 5 -5 5 -71 44 -145 86 -74 41 -144 83 -155
92 -19 15 -16 16 45 11 36 -3 106 -8 155 -12 50 -3 93 -8 98 -11 20 -12 2 11
-50 62 l-58 56 59 -4 c69 -4 74 -11 -75 93 l-93 65 42 3 42 3 -112 80 c-168
119 -166 116 -61 107 49 -4 108 -10 132 -13 l44 -7 -21 30 c-12 16 -28 35 -37
42 -9 7 -20 22 -26 32 -9 16 -6 17 38 12 l48 -6 -55 48 c-30 27 -73 66 -95 87
l-40 38 40 -7 40 -6 -70 63 c-38 35 -88 81 -110 102 l-40 39 55 -6 c30 -3 80
-9 110 -13 l54 -6 -37 51 c-20 29 -37 54 -37 57 0 3 14 5 30 5 17 0 30 3 30 7
0 3 -30 38 -67 77 -67 70 -68 71 -40 74 28 3 27 4 -45 85 -112 127 -108 121
-76 115 23 -4 14 9 -62 89 -60 64 -98 116 -119 160 l-31 65 -35 -69 c-31 -61
-162 -214 -183 -213 -4 1 -34 26 -67 56 l-60 55 34 -4 c33 -4 31 -1 -60 85
l-94 89 40 -5 c22 -3 64 -8 94 -12 l53 -6 -31 45 c-17 25 -31 49 -31 52 0 4
14 5 30 3 30 -5 30 -4 12 16 -48 56 -81 25 430 414 260 197 520 396 578 440
58 44 111 81 118 81 8 1 51 -34 97 -76z m-782 -129 l56 -51 -88 -87 c-49 -47
-95 -86 -104 -86 -9 0 -27 4 -41 9 -22 9 -29 4 -72 -42 -26 -29 -101 -110
-167 -180 l-120 -128 -44 48 c-62 68 -69 83 -41 83 22 0 22 1 -5 23 l-28 22
88 66 c48 37 180 137 293 223 112 86 207 155 211 154 3 -2 31 -26 62 -54z
m1807 -264 c0 -5 -5 -10 -11 -10 -5 0 -7 5 -4 10 3 6 8 10 11 10 2 0 4 -4 4
-10z m-2580 -100 c-5 -3 20 -41 56 -84 35 -43 64 -81 64 -83 0 -2 -9 -1 -20 2
-31 10 -25 -1 37 -72 45 -51 54 -66 43 -73 -12 -8 -11 -14 6 -37 43 -59 47
-57 -72 -49 l-109 7 85 -85 c82 -83 84 -86 55 -86 -29 0 -27 -3 44 -67 69 -63
72 -67 51 -75 -22 -8 -22 -10 18 -44 23 -20 42 -39 42 -42 0 -4 -55 -4 -122 1
-68 4 -129 6 -136 5 -7 -2 33 -39 90 -83 l102 -80 -33 -5 -34 -5 51 -35 c29
-19 52 -37 52 -40 0 -3 -20 -26 -45 -50 -25 -24 -45 -47 -45 -50 0 -3 17 -4
37 -2 l37 5 -16 -24 c-15 -22 -21 -24 -99 -21 -50 1 -80 -1 -74 -7 6 -5 57
-39 114 -76 l104 -67 -44 -38 c-24 -22 -47 -39 -51 -40 -5 0 -8 -5 -8 -11 0
-6 13 -8 30 -5 17 2 30 1 30 -4 0 -4 -38 -40 -85 -80 -47 -40 -85 -74 -85 -77
0 -3 21 -2 47 2 54 8 54 7 -21 -74 l-41 -44 35 7 c66 12 235 19 225 9 -23 -23
-163 -123 -171 -123 -5 0 -53 44 -106 98 -96 96 -98 97 -91 136 l6 38 -27 -17
c-27 -18 -27 -18 -63 18 l-36 36 47 119 c46 116 112 339 103 348 -2 3 -38 -17
-78 -44 -41 -27 -75 -49 -76 -48 -8 7 88 310 146 460 10 25 9 28 -6 22 -9 -4
-20 -1 -25 6 -6 10 -8 8 -8 -4 0 -10 -3 -18 -7 -18 -5 0 -18 -3 -30 -6 -21 -6
-21 -4 12 123 31 118 58 283 46 283 -2 0 -16 -10 -29 -22 l-24 -23 7 25 c4 14
15 49 26 78 26 73 25 84 -6 72 -14 -5 -25 -8 -25 -7 0 2 11 32 25 67 14 35 25
73 25 85 0 35 13 38 37 9 12 -16 18 -31 13 -34z m2876 -261 c-3 -39 -11 -79
-17 -88 -10 -16 -10 -12 6 112 10 74 19 55 11 -24z m-880 -154 c3 -8 -1 -45
-10 -82 -23 -103 -41 -302 -29 -314 8 -8 13 1 17 28 24 162 30 192 37 188 4
-3 6 -29 3 -58 -2 -28 -6 -80 -8 -114 -4 -52 -11 -72 -50 -130 -25 -37 -48
-81 -52 -96 -4 -16 -9 -25 -13 -20 -3 4 -15 13 -26 19 -26 15 -25 59 2 259 22
152 46 240 84 301 22 37 36 43 45 19z m1118 -66 c-3 -5 15 -34 41 -63 34 -40
42 -55 31 -58 -12 -2 -6 -15 25 -50 22 -27 35 -48 29 -48 -7 0 -3 -14 10 -35
l22 -35 -79 6 -78 6 59 -60 c46 -48 55 -61 40 -64 -14 -2 -6 -13 35 -47 32
-27 48 -47 41 -51 -8 -5 -2 -17 15 -39 l27 -32 -96 7 c-53 4 -96 5 -96 2 0 -3
32 -30 71 -59 61 -46 67 -55 49 -59 -19 -4 -14 -11 39 -49 38 -28 57 -47 50
-52 -8 -4 0 -17 22 -38 l34 -31 -125 6 c-121 6 -124 5 -101 -11 l23 -18 -102
-99 c-57 -54 -104 -97 -106 -95 -3 2 10 37 26 78 38 90 84 248 76 257 -4 3
-23 -2 -42 -12 -20 -9 -39 -14 -42 -11 -3 3 15 73 40 156 33 109 41 149 31
144 -8 -3 -25 -8 -38 -11 l-22 -5 23 87 c13 48 26 115 30 148 l7 61 -22 -19
-21 -19 13 39 c28 80 29 93 7 87 l-20 -5 20 47 c11 25 20 56 20 67 0 20 1 20
20 3 11 -10 17 -22 14 -26z m-223 -132 c-8 -8 -11 2 -11 34 0 59 14 73 18 19
2 -24 -2 -48 -7 -53z m-874 41 c-3 -7 -5 -2 -5 12 0 14 2 19 5 13 2 -7 2 -19
0 -25z m-1339 -119 c-10 -6 96 -148 122 -164 17 -11 11 -25 -10 -25 -27 0 -17
-17 54 -95 30 -33 55 -63 56 -67 0 -3 -10 -4 -22 0 -20 5 -19 2 9 -39 16 -24
33 -50 37 -57 7 -11 -12 -12 -105 -7 -63 4 -117 9 -121 12 -5 2 -8 0 -8 -5 0
-5 43 -50 95 -101 93 -90 94 -91 62 -91 -32 -1 -31 -2 52 -80 76 -70 82 -78
60 -82 -23 -3 -23 -4 19 -49 23 -25 42 -50 42 -54 0 -4 -37 -4 -82 -1 -46 4
-115 8 -155 11 l-72 4 37 -33 c20 -18 74 -61 120 -95 45 -35 82 -66 82 -69 0
-2 -18 -2 -40 2 -22 3 -40 4 -40 2 0 -3 50 -41 111 -86 106 -76 110 -80 78
-80 l-34 -1 60 -55 60 -56 -65 6 c-36 3 -126 8 -200 12 l-135 6 47 -34 c26
-18 80 -53 120 -78 40 -25 99 -65 132 -90 61 -46 166 -145 166 -156 0 -4 -16
-4 -35 -1 -19 3 -35 4 -35 2 0 -3 30 -28 68 -56 l67 -51 -164 7 c-135 5 -162
4 -155 -7 12 -22 87 -112 103 -125 8 -7 13 -14 10 -16 -2 -2 -17 -11 -33 -21
l-29 -18 -227 227 -227 227 31 93 c17 51 32 96 33 101 1 5 10 45 22 89 11 43
19 81 17 82 -2 2 -36 -10 -77 -27 -87 -35 -83 -35 -74 -12 4 9 8 24 10 32 7
29 75 256 96 317 16 49 24 61 37 57 13 -5 14 -4 3 4 -9 6 -11 19 -6 40 l6 31
-57 -19 c-31 -11 -58 -20 -60 -20 -1 0 11 48 28 108 16 59 34 124 39 145 11
46 29 210 23 216 -2 3 -18 -8 -34 -24 l-30 -28 10 29 c4 16 20 64 33 107 16
48 21 77 14 74 -60 -22 -59 -24 -27 54 17 39 30 78 30 86 0 8 4 12 8 9 5 -3 6
9 4 26 l-5 31 31 -34 c18 -21 26 -36 20 -40z m-259 -105 c-15 -18 -22 -18 -35
4 -11 16 -9 18 17 14 24 -4 27 -7 18 -18z m2386 -25 c-4 -5 7 -6 25 -3 30 6
30 6 24 -27 -4 -19 -18 -46 -32 -61 l-25 -27 24 5 c19 4 10 -8 -36 -51 -52
-50 -56 -56 -32 -51 34 8 34 4 0 -41 -24 -31 -25 -35 -8 -30 28 8 145 20 145
15 0 -3 -36 -31 -80 -62 -44 -32 -80 -59 -80 -61 0 -1 12 0 28 2 l27 4 -25
-20 c-14 -11 -47 -37 -75 -57 l-50 -36 40 7 40 7 -38 -39 -37 -39 67 7 c38 5
84 8 103 8 l35 1 -35 -23 c-19 -13 -63 -39 -98 -58 -62 -33 -63 -34 -33 -39
30 -5 29 -6 -39 -43 l-70 -38 0 49 c0 26 4 73 9 103 6 30 12 74 14 99 3 25 13
65 22 90 10 25 21 63 25 85 7 40 7 40 9 -15 4 -91 19 -106 20 -19 2 131 14
289 23 289 4 0 8 -77 8 -172 0 -94 2 -169 4 -167 3 2 7 85 11 184 4 126 10
181 18 184 7 2 23 17 37 32 23 24 49 31 35 8z m86 -32 c-7 -7 -12 -5 -17 7 -4
11 -1 21 7 27 17 11 26 -18 10 -34z m39 39 c0 -3 -4 -8 -10 -11 -5 -3 -10 -1
-10 4 0 6 5 11 10 11 6 0 10 -2 10 -4z m-2581 -52 c3 -2 -6 -15 -19 -29 -25
-26 -32 -25 -85 19 l-30 24 65 -5 c36 -3 67 -7 69 -9z m2311 -58 c0 -30 -15
-42 -24 -20 -10 27 -7 44 9 44 9 0 15 -9 15 -24z m-847 -348 c-7 -35 -17 -100
-22 -145 -6 -45 -16 -95 -24 -110 -9 -18 -17 -81 -21 -178 -6 -129 -4 -167 14
-266 11 -63 25 -131 30 -149 5 -19 8 -35 6 -38 -3 -2 2 -19 10 -38 8 -19 11
-34 8 -34 -4 0 -2 -6 3 -12 20 -25 23 -65 8 -78 -8 -7 -15 -25 -15 -39 0 -15
-11 -42 -25 -61 -14 -19 -25 -40 -25 -47 0 -7 -11 -31 -25 -53 -14 -22 -25
-44 -25 -50 0 -20 -44 -10 -104 24 -34 18 -82 37 -108 40 -54 8 -69 36 -20 36
25 1 26 1 7 12 -11 6 -21 12 -22 13 -7 4 135 504 147 515 3 3 5 12 6 20 3 34
164 595 194 674 16 43 17 29 3 -36z m-1468 12 c-3 -5 -12 -10 -20 -10 -8 0
-17 5 -20 10 -4 6 5 10 20 10 15 0 24 -4 20 -10z m1875 -177 c0 -9 5 -32 12
-50 12 -33 11 -53 -18 -353 -3 -30 -16 -163 -29 -295 -14 -132 -25 -244 -25
-249 0 -10 -138 -146 -149 -146 -5 0 -8 10 -8 23 1 52 -28 145 -52 163 -12 9
-13 33 -8 135 4 68 12 167 18 219 11 85 10 103 -8 175 -18 73 -19 84 -5 129
26 90 46 106 138 106 56 0 62 6 99 113 16 46 35 63 35 30z m375 -178 c-38 -32
-48 -31 -33 0 8 17 19 25 37 25 l26 -1 -30 -24z m-288 -17 c24 -28 73 -209 73
-272 0 -39 -3 -45 -17 -40 -15 5 -16 4 -3 -5 11 -7 16 -38 20 -113 l6 -103
-103 -103 c-57 -57 -103 -98 -103 -90 0 7 7 72 15 143 8 72 17 148 19 170 39
346 51 435 61 435 6 0 21 -10 32 -22z m408 -53 c-38 -19 -91 -43 -117 -54
l-48 -20 0 49 0 49 68 4 c37 2 90 4 117 4 l50 1 -70 -33z m-125 -100 c-32 -18
-40 -18 -40 0 0 10 10 15 33 15 l32 -1 -25 -14z m-1160 -694 c0 -16 -28 -20
-47 -6 -17 13 -16 14 15 15 17 0 32 -4 32 -9z m-217 -105 l-18 -24 -40 20
c-22 11 -42 22 -44 24 -2 2 24 4 58 4 l62 0 -18 -24z"/>
<path d="M3715 4545 c-66 -46 -126 -82 -132 -80 -7 2 -13 -2 -13 -10 0 -8 -4
-15 -10 -15 -5 0 -18 -7 -27 -15 -10 -8 -27 -22 -38 -30 -11 -8 6 -4 39 10 32
14 62 22 67 19 5 -3 9 -1 9 4 0 5 31 23 69 40 75 32 81 31 81 -24 0 -31 8 -30
46 7 l32 31 118 -37 c66 -20 132 -41 147 -47 15 -6 30 -9 32 -6 5 4 -256 211
-288 230 -7 3 -66 -31 -132 -77z"/>
<path d="M3616 4374 c-17 -12 -17 -14 -4 -14 9 0 20 5 23 11 11 17 2 18 -19 3z"/>
<path d="M3393 3785 c0 -13 8 -32 18 -41 18 -16 19 -16 19 -1 0 10 -5 16 -12
15 -7 -2 -13 8 -14 21 -1 23 -1 24 12 6 14 -18 14 -18 14 1 0 12 -7 20 -19 21
-13 1 -18 -5 -18 -22z"/>
<path d="M3400 3641 c0 -5 5 -13 10 -16 6 -3 10 -2 10 4 0 5 -4 13 -10 16 -5
3 -10 2 -10 -4z"/>
<path d="M3615 3369 c-4 -12 -2 -26 3 -31 8 -8 9 -4 6 13 -4 17 -3 20 4 11 8
-11 10 -11 15 1 6 15 0 27 -14 27 -4 0 -11 -9 -14 -21z"/>
<path d="M3977 3209 c4 -13 8 -18 11 -10 2 7 -1 18 -6 23 -8 8 -9 4 -5 -13z"/>
<path d="M3455 2960 c3 -5 8 -10 11 -10 2 0 4 5 4 10 0 6 -5 10 -11 10 -5 0
-7 -4 -4 -10z"/>
<path d="M5510 2911 c0 -6 4 -13 10 -16 6 -3 7 1 4 9 -7 18 -14 21 -14 7z"/>
<path d="M3040 2520 c-12 -7 -10 -9 7 -7 12 0 19 5 17 9 -6 10 -6 10 -24 -2z"/>
<path d="M4040 1910 c0 -5 5 -10 11 -10 5 0 7 5 4 10 -3 6 -8 10 -11 10 -2 0
-4 -4 -4 -10z"/>
<path d="M4495 1970 c3 -5 8 -10 11 -10 2 0 4 5 4 10 0 6 -5 10 -11 10 -5 0
-7 -4 -4 -10z"/>
<path d="M4665 2170 c-23 -5 -17 -7 28 -8 33 0 57 1 55 2 -10 9 -57 12 -83 6z"/>
<path d="M5834 3871 c3 -5 -4 -11 -16 -14 -12 -4 -19 -9 -16 -13 11 -10 48 6
48 22 0 8 -5 14 -11 14 -5 0 -8 -4 -5 -9z"/>
<path d="M5920 2795 c0 -8 2 -15 4 -15 2 0 6 7 10 15 3 8 1 15 -4 15 -6 0 -10
-7 -10 -15z"/>
<path d="M1721 2583 c7 -12 15 -20 18 -17 3 2 -3 12 -13 22 -17 16 -18 16 -5
-5z"/>
<path d="M5585 2020 c-8 -12 2 -30 17 -30 7 0 7 5 -1 14 -9 11 -9 15 1 19 9 4
9 6 1 6 -6 1 -15 -3 -18 -9z"/>
<path d="M5730 1830 c0 -13 18 -22 24 -11 3 5 -1 11 -9 15 -8 3 -15 1 -15 -4z"/>
</g>
</svg>
